<?xml version="1.0" encoding="UTF-8"?>
<svg id="Layer_1" xmlns="http://www.w3.org/2000/svg" version="1.1" viewBox="0 0 1200 480">
  <!-- Generator: Adobe Illustrator 29.1.0, SVG Export Plug-In . SVG Version: 2.1.0 Build 142)  -->
  <defs>
    <style>
      .st0 {
        fill: #fff;
      }
    </style>
  </defs>
  <g>
    <g>
      <path class="st0" d="M79.59,212.73h-26.44V53.14h54.49v23.71h-28.04v44h28.04v23.71h-28.04v68.17Z"/>
      <path class="st0" d="M153.38,215.01c-25.76,0-35.11-8.89-35.11-52.21v-59.5c0-43.09,9.35-52.43,35.11-52.43h2.51c25.08,0,35.11,9.35,35.11,52.43v59.5c0,43.32-10.03,52.21-35.11,52.21h-2.51ZM154.97,192.67c7.52,0,9.35-3.42,9.35-25.99v-67.25c0-22.34-1.82-26.22-9.35-26.22h-.68c-7.52,0-9.58,3.88-9.58,26.22v67.25c0,22.57,2.05,25.99,9.58,25.99h.68Z"/>
      <path class="st0" d="M256.15,212.73h-50.8V53.14h26.44v135.87h24.36v23.71Z"/>
      <path class="st0" d="M317.59,212.73h-50.8V53.14h26.44v135.87h24.36v23.71Z"/>
      <path class="st0" d="M360.63,215.01c-25.76,0-35.11-8.89-35.11-52.21v-59.5c0-43.09,9.35-52.43,35.11-52.43h2.51c25.08,0,35.11,9.35,35.11,52.43v59.5c0,43.32-10.03,52.21-35.11,52.21h-2.51ZM362.23,192.67c7.52,0,9.35-3.42,9.35-25.99v-67.25c0-22.34-1.82-26.22-9.35-26.22h-.68c-7.52,0-9.58,3.88-9.58,26.22v67.25c0,22.57,2.05,25.99,9.58,25.99h.68Z"/>
      <path class="st0" d="M519.27,212.73h-35.34l-11.85-101.45-12.54,101.45h-35.79l-17.78-159.58h26.9l9.35,125.84h1.37l14.36-125.84h27.59l14.13,125.84h1.14l9.8-125.84h26.45l-17.78,159.58Z"/>
    </g>
    <g>
      <path class="st0" d="M79.74,388.27h-26.67v-135.87h-21.39v-23.71h70.6v23.71h-22.53v135.87Z"/>
      <path class="st0" d="M189.32,388.27h-26.45v-67.94h-23.52v67.94h-26.44v-159.58h26.44v67.71h23.52v-67.71h26.45v159.58Z"/>
      <path class="st0" d="M259.76,388.27h-54.49v-159.58h54.49v23.71h-28.04v44h28.04v23.94h-28.04v44.23h28.04v23.71Z"/>
    </g>
  </g>
  <g>
    <path class="st0" d="M810.67,388.3h-25.08v-124.48h-1.14l-18.47,124.48h-20.75l-18.69-124.48h-1.14v124.48h-24.85v-159.58h42.18l13.22,97.57h1.14l13.22-97.57h40.35v159.58Z"/>
    <path class="st0" d="M860.14,390.58c-25.76,0-35.11-8.89-35.11-52.21v-59.5c0-43.09,9.35-52.43,35.11-52.43h2.51c25.08,0,35.11,9.35,35.11,52.43v59.5c0,43.32-10.03,52.21-35.11,52.21h-2.51ZM861.74,368.23c7.52,0,9.35-3.42,9.35-25.99v-67.25c0-22.34-1.82-26.22-9.35-26.22h-.68c-7.52,0-9.58,3.88-9.58,26.22v67.25c0,22.57,2.05,25.99,9.58,25.99h.68Z"/>
    <path class="st0" d="M991,388.3h-31.46l-23.25-101.91h-.91v101.91h-23.25v-159.58h31.23l23.03,101.91h.91v-101.91h23.71v159.58Z"/>
    <path class="st0" d="M1061.44,388.3h-54.49v-159.58h54.49v23.71h-28.04v44h28.04v23.94h-28.04v44.23h28.04v23.71Z"/>
    <path class="st0" d="M1123.22,388.3h-26.67v-60.87l-27.13-98.71h27.13l13.91,67.48h.91l14.13-67.48h25.31l-27.59,98.03v61.55Z"/>
  </g>
  <rect class="st0" x="279.22" y="408.24" width="863.6" height="23.93"/>
</svg>