<?xml version="1.0" encoding="UTF-8"?>
<svg id="Layer_1" xmlns="http://www.w3.org/2000/svg" version="1.1" viewBox="0 0 1200 240">
  <!-- Generator: Adobe Illustrator 29.1.0, SVG Export Plug-In . SVG Version: 2.1.0 Build 142)  -->
  <defs>
    <style>
      .st0 {
        fill: #fff;
      }
    </style>
  </defs>
  <g>
    <path class="st0" d="M59.61,166.4h-21.21V38.38h43.71v19.02h-22.5v35.3h22.5v19.02h-22.5v54.68Z"/>
    <path class="st0" d="M118.81,168.23c-20.67,0-28.16-7.13-28.16-41.88v-47.73c0-34.57,7.5-42.06,28.16-42.06h2.01c20.12,0,28.16,7.5,28.16,42.06v47.73c0,34.75-8.05,41.88-28.16,41.88h-2.01ZM120.09,150.31c6.04,0,7.5-2.74,7.5-20.85v-53.95c0-17.92-1.46-21.03-7.5-21.03h-.55c-6.04,0-7.68,3.11-7.68,21.03v53.95c0,18.11,1.65,20.85,7.68,20.85h.55Z"/>
    <path class="st0" d="M201.26,166.4h-40.75V38.38h21.21v109h19.54v19.02Z"/>
    <path class="st0" d="M250.54,166.4h-40.75V38.38h21.21v109h19.54v19.02Z"/>
    <path class="st0" d="M285.08,168.23c-20.67,0-28.16-7.13-28.16-41.88v-47.73c0-34.57,7.5-42.06,28.16-42.06h2.01c20.12,0,28.16,7.5,28.16,42.06v47.73c0,34.75-8.05,41.88-28.16,41.88h-2.01ZM286.36,150.31c6.04,0,7.5-2.74,7.5-20.85v-53.95c0-17.92-1.46-21.03-7.5-21.03h-.55c-6.04,0-7.68,3.11-7.68,21.03v53.95c0,18.11,1.65,20.85,7.68,20.85h.55Z"/>
    <path class="st0" d="M412.33,166.4h-28.35l-9.51-81.39-10.06,81.39h-28.71l-14.27-128.02h21.58l7.5,100.95h1.1l11.52-100.95h22.13l11.34,100.95h.91l7.86-100.95h21.22l-14.27,128.02Z"/>
  </g>
  <g>
    <path class="st0" d="M489.5,166.4h-21.4V57.4h-16.09v-19.02h54.5v19.02h-17.01v109Z"/>
    <path class="st0" d="M574.29,166.4h-21.22v-54.5h-16.83v54.5h-21.21V38.38h21.21v54.32h16.83v-54.32h21.22v128.02Z"/>
    <path class="st0" d="M630.8,166.4h-43.71V38.38h43.71v19.02h-22.5v35.3h22.5v19.2h-22.5v35.48h22.5v19.02Z"/>
  </g>
  <g>
    <path class="st0" d="M888.74,166.4h-20.12v-99.86h-.91l-14.81,99.86h-16.64l-15-99.86h-.91v99.86h-19.93V38.38h33.83l10.61,78.28h.91l10.61-78.28h32.37v128.02Z"/>
    <path class="st0" d="M928.42,168.23c-20.67,0-28.16-7.13-28.16-41.88v-47.73c0-34.57,7.5-42.06,28.16-42.06h2.01c20.12,0,28.16,7.5,28.16,42.06v47.73c0,34.75-8.05,41.88-28.16,41.88h-2.01ZM929.7,150.31c6.04,0,7.5-2.74,7.5-20.85v-53.95c0-17.92-1.46-21.03-7.5-21.03h-.55c-6.04,0-7.68,3.11-7.68,21.03v53.95c0,18.11,1.65,20.85,7.68,20.85h.55Z"/>
    <path class="st0" d="M1033.4,166.4h-25.24l-18.65-81.75h-.73v81.75h-18.65V38.38h25.06l18.47,81.75h.73V38.38h19.02v128.02Z"/>
    <path class="st0" d="M1089.91,166.4h-43.71V38.38h43.71v19.02h-22.5v35.3h22.5v19.2h-22.5v35.48h22.5v19.02Z"/>
    <path class="st0" d="M1139.47,166.4h-21.4v-48.83l-21.76-79.19h21.76l11.16,54.14h.73l11.34-54.14h20.3l-22.13,78.64v49.38Z"/>
  </g>
  <rect class="st0" x="643.6" y="182.39" width="511.6" height="19.2"/>
</svg>